<?xml version="1.0" standalone="no"?>
<!DOCTYPE svg PUBLIC "-//W3C//DTD SVG 20010904//EN"
 "http://www.w3.org/TR/2001/REC-SVG-20010904/DTD/svg10.dtd">
<svg version="1.0" xmlns="http://www.w3.org/2000/svg"
 width="400.000000pt" height="400.000000pt" viewBox="0 0 400.000000 400.000000"
 preserveAspectRatio="xMidYMid meet">
<metadata>
Created by potrace 1.11, written by Peter Selinger 2001-2013
</metadata>
<g transform="translate(0.000000,400.000000) scale(0.100000,-0.100000)"
fill="#000000" stroke="none">
<path d="M1864 3826 c-110 -25 -132 -53 -139 -178 -7 -136 -15 -177 -39 -193
-11 -8 -29 -15 -38 -15 -10 0 -23 -11 -30 -25 -9 -20 -20 -25 -70 -31 -49 -6
-66 -13 -96 -41 -21 -19 -47 -39 -60 -44 -13 -5 -85 -9 -160 -9 -118 0 -141
-3 -169 -20 -60 -36 -62 -46 -67 -279 -5 -212 -5 -213 -31 -238 -14 -14 -25
-30 -25 -34 0 -5 -17 -17 -37 -26 -23 -11 -44 -31 -53 -50 -9 -19 -25 -34 -40
-38 -14 -4 -33 -14 -42 -22 -16 -15 -18 -15 -18 0 0 9 4 18 9 22 6 3 7 126 4
305 -6 274 -5 300 10 300 26 0 64 38 81 81 30 73 0 157 -70 196 -49 28 -84 29
-134 3 -47 -24 -70 -56 -80 -113 -13 -70 37 -157 91 -157 17 0 19 -9 20 -82 1
-92 7 -87 11 10 4 82 23 76 23 -8 1 -36 3 -166 5 -290 2 -124 1 -231 -3 -237
-11 -17 4 -154 16 -146 6 4 7 -10 3 -38 -8 -57 19 -251 39 -283 26 -39 45 -40
52 -4 6 30 7 29 23 -31 26 -94 69 -123 71 -48 0 27 3 23 19 -27 10 -32 28 -68
39 -80 20 -21 21 -34 21 -192 1 -138 4 -175 18 -203 19 -38 72 -71 115 -71 16
0 26 -4 22 -10 -3 -5 -1 -10 5 -10 6 0 8 -4 5 -10 -4 -6 22 -8 72 -5 50 4 71
2 58 -4 -11 -4 -23 -7 -27 -5 -4 3 -3 -8 1 -23 10 -38 4 -133 -10 -160 -9 -17
-9 -26 -1 -36 14 -16 6 -27 -18 -27 -10 0 -23 -7 -30 -15 -10 -13 -9 -15 9
-15 11 0 21 -3 21 -7 0 -8 -681 -6 -689 2 -2 3 -9 1 -16 -5 -6 -5 -46 -10 -89
-12 -86 -3 -88 -4 -103 -73 -7 -34 -12 -40 -37 -43 -20 -3 -31 -11 -39 -32
l-11 -28 -38 19 c-20 10 -53 19 -71 19 -66 0 -91 10 -107 43 -39 80 -40 62
-40 -506 l0 -544 175 -2 175 -2 0 201 c0 111 -4 199 -8 196 -5 -3 -10 -28 -11
-57 -2 -62 -3 -65 -38 -74 -15 -3 -32 -14 -39 -23 -20 -28 -29 43 -28 238 0
173 9 255 23 217 4 -10 11 -19 16 -19 6 0 22 -7 37 -16 26 -15 27 -20 31 -111
1 -53 4 29 5 181 1 174 6 279 12 283 6 4 8 11 4 16 -3 5 10 25 28 43 32 32 37
34 102 32 64 -1 70 -3 96 -35 24 -28 36 -34 93 -41 36 -4 71 -11 78 -15 8 -6
10 -4 4 5 -6 9 -4 11 5 5 8 -5 75 -9 149 -10 75 -1 195 -5 266 -9 72 -3 177
-9 235 -12 58 -3 112 -6 120 -6 8 -1 20 0 25 2 22 6 98 0 91 -7 -11 -11 -76
-12 -76 -1 0 5 -8 5 -17 0 -10 -5 -90 -12 -178 -16 -279 -11 -367 -16 -468
-26 -54 -6 -143 -10 -197 -10 -101 0 -105 -2 -101 -37 1 -7 -2 -13 -6 -13 -4
0 -7 -150 -5 -332 1 -200 -1 -339 -7 -347 -8 -13 -12 -13 -27 0 -11 9 -15 9
-10 2 9 -16 -6 -17 -22 -1 -9 9 -15 9 -24 0 -13 -13 -13 -13 -23 -124 -8 -75
-7 -78 14 -78 19 0 21 5 21 66 0 41 4 63 10 59 6 -3 10 -33 10 -66 l0 -59 69
0 69 0 -2 93 c-1 51 1 104 5 117 4 14 7 -28 8 -92 l1 -118 80 0 80 0 0 182 c0
100 2 179 4 177 4 -5 16 -214 16 -296 l0 -62 515 0 514 0 4 142 3 142 2 -142
2 -143 85 0 84 0 4 147 3 148 2 -147 2 -148 161 0 c104 0 158 3 154 10 -3 6
-1 10 4 10 6 0 11 -4 11 -10 0 -6 42 -10 105 -10 77 0 105 3 105 13 0 9 2 9 9
-1 13 -21 181 -14 181 7 1 13 2 13 11 -1 9 -16 27 -18 149 -18 l140 0 0 139
c0 83 4 142 10 146 6 4 10 -45 10 -139 l0 -146 146 0 146 0 -4 65 c-2 47 0 65
10 65 8 0 12 -20 12 -65 0 -58 2 -65 20 -65 16 0 20 7 22 38 0 20 1 44 0 52
-6 85 -11 133 -15 136 -2 2 -18 0 -35 -5 -17 -5 -34 -6 -36 -2 -3 4 -8 164
-11 357 -5 300 -9 351 -22 361 -11 8 -65 12 -172 12 -86 0 -208 2 -271 5 -118
6 -767 20 -807 18 -14 -1 -23 4 -23 13 0 17 17 29 24 17 3 -5 20 -8 38 -6 18
1 130 5 248 8 118 3 299 8 401 12 103 3 254 7 335 9 82 1 158 6 169 10 11 5
39 26 62 47 38 34 48 38 97 38 30 0 67 -5 82 -10 30 -12 52 6 33 25 -18 18
-229 29 -549 28 -173 -1 -297 2 -275 6 l40 6 -32 15 c-25 11 -31 19 -27 34 6
18 0 18 -137 11 -177 -10 -956 -12 -1059 -4 -130 11 -152 21 -183 81 -29 56
-34 106 -9 86 10 -9 19 -5 37 18 l23 29 441 3 c242 1 501 -1 576 -6 122 -8
137 -11 160 -32 22 -21 29 -22 46 -12 11 7 30 9 45 6 23 -6 25 -4 22 17 -2 15
-12 25 -28 29 -24 6 -24 7 7 11 18 3 30 2 28 -2 -7 -11 58 -17 83 -8 12 5 22
15 22 22 0 10 17 16 51 20 91 11 109 46 109 208 0 130 -11 140 -16 14 -2 -49
-10 -97 -18 -114 -19 -35 -60 -53 -106 -46 -90 14 -243 21 -259 11 -4 -3 -22
-1 -39 4 -18 4 -34 5 -37 0 -3 -5 -20 -6 -38 -3 -17 3 -61 5 -97 5 -71 -1
-131 0 -170 0 -14 1 -50 0 -80 -1 -30 -1 -116 0 -190 2 -74 1 -140 -1 -146 -5
-6 -5 -24 -4 -39 2 -15 6 -32 7 -37 3 -17 -10 -68 -12 -74 -2 -3 5 -10 9 -15
9 -6 0 -8 -4 -5 -9 3 -5 -12 -5 -36 1 -29 6 -43 5 -48 -2 -8 -13 -17 -13 -41
1 -9 4 -19 6 -22 2 -10 -10 -191 -11 -204 -1 -7 6 -18 6 -30 0 -29 -16 -136
-24 -164 -14 -48 19 -50 39 -48 744 1 359 5 693 9 741 7 92 15 107 57 107 20
0 22 -5 22 -67 1 -38 2 -79 2 -93 1 -14 -2 -97 -6 -186 -8 -180 1 -250 37
-289 13 -13 29 -31 36 -40 7 -8 17 -13 23 -10 5 4 9 2 9 -4 0 -13 52 -41 75
-41 9 0 13 5 10 10 -4 6 -10 8 -15 5 -20 -12 -116 106 -122 150 -2 11 -6 25
-9 30 -12 24 -10 138 5 187 59 202 284 303 472 213 75 -37 139 -97 171 -163
24 -49 27 -69 27 -147 0 -81 -3 -96 -27 -135 -58 -97 -118 -141 -239 -175
l-53 -15 54 5 c30 3 72 13 95 20 23 8 51 15 63 15 12 0 27 8 32 18 6 9 11 13
11 8 0 -4 10 -2 23 6 12 8 34 18 50 22 22 5 27 3 27 -11 1 -16 2 -16 12 2 6
11 19 29 30 41 17 19 28 49 30 82 1 10 5 9 16 -2 14 -14 14 -17 -2 -35 -9 -10
-16 -25 -15 -33 2 -7 -4 -27 -14 -44 -21 -41 -79 -215 -73 -221 3 -3 11 -1 18
3 7 5 17 9 21 9 4 0 23 15 42 34 19 19 35 30 35 24 0 -5 7 -18 16 -29 10 -13
14 -14 11 -4 -3 9 1 24 9 34 7 11 11 22 9 26 -2 4 2 7 9 7 8 0 12 -10 10 -25
-2 -18 8 -35 32 -59 59 -57 63 -43 24 75 -47 136 -50 143 -63 135 -7 -4 -8 5
-4 27 4 18 7 42 7 54 0 17 2 18 10 6 8 -13 10 -13 10 1 0 9 -7 19 -15 23 -8 3
-12 12 -9 21 9 22 22 18 26 -7 2 -18 9 -22 27 -20 20 2 22 0 11 -13 -11 -13
-10 -14 1 -10 10 4 15 -1 16 -14 1 -12 -6 -21 -21 -25 -12 -3 -23 -13 -23 -22
0 -15 2 -15 13 1 7 9 17 14 23 10 6 -3 11 -1 11 5 0 6 5 8 11 4 8 -5 8 -1 0
14 -6 12 -7 23 -2 26 11 7 33 -43 25 -56 -4 -7 -2 -8 4 -4 10 6 26 -4 76 -49
22 -20 102 -54 144 -61 22 -4 2 16 -36 35 -50 26 -118 96 -145 151 -18 36 -22
62 -22 130 1 77 4 91 34 148 78 143 228 216 386 187 63 -12 155 -54 182 -83
44 -46 86 -122 89 -160 1 -21 5 -55 8 -77 3 -21 1 -42 -4 -45 -5 -3 -11 -19
-14 -36 -2 -16 -8 -42 -15 -57 -6 -16 -11 -34 -11 -40 0 -7 -9 -18 -20 -25
-11 -7 -20 -18 -20 -25 0 -8 -11 -20 -25 -27 -25 -13 -35 -40 -14 -40 5 0 7 5
3 11 -4 7 -1 10 7 7 18 -6 89 30 89 46 0 6 5 4 10 -4 7 -11 10 -12 10 -2 0 7
7 20 15 28 8 9 15 27 16 42 1 27 1 229 1 267 0 11 0 52 1 90 0 39 -1 104 -3
146 -2 41 -1 80 3 86 9 14 47 5 47 -12 0 -7 6 -18 14 -24 12 -10 14 -4 14 39
1 27 3 54 6 58 9 15 -25 54 -60 68 -23 9 -74 14 -160 14 l-127 0 -47 44 c-44
41 -53 45 -118 52 -62 6 -71 9 -75 28 l-4 21 -2 -21 c-1 -26 -18 -34 -54 -27
-21 4 -26 10 -25 32 1 14 6 29 11 32 6 4 5 61 -3 142 -7 75 -10 140 -6 145 10
16 -24 51 -72 72 -62 28 -266 37 -358 16z m400 -101 c17 -25 40 -232 29 -261
-3 -8 -15 -14 -27 -12 -15 2 -21 11 -22 33 0 17 -4 83 -8 148 -8 121 -2 138
28 92z m-364 -70 c0 -14 -4 -25 -9 -25 -4 0 -6 11 -3 25 2 14 6 25 8 25 2 0 4
-11 4 -25z m239 -98 c1 -44 -2 -66 -9 -62 -5 3 -10 43 -9 88 0 98 16 76 18
-26z m85 57 c11 -94 10 -137 -4 -129 -5 3 -10 45 -10 92 0 89 6 106 14 37z
m-373 -10 c-9 -28 -9 -29 -10 -3 -1 14 2 29 6 32 11 12 13 2 4 -29z m46 -44
c-3 -65 -17 -65 -17 0 0 28 4 50 10 50 5 0 8 -22 7 -50z m-90 -37 c-2 -16 -4
-3 -4 27 0 30 2 43 4 28 2 -16 2 -40 0 -55z m280 20 c-3 -10 -5 -4 -5 12 0 17
2 24 5 18 2 -7 2 -21 0 -30z m-240 -20 c-3 -10 -5 -2 -5 17 0 19 2 27 5 18 2
-10 2 -26 0 -35z m343 -3 c0 -16 -4 -30 -10 -30 -11 0 -14 43 -3 53 11 12 13
8 13 -23z m-1511 -202 c1 -31 -17 -47 -30 -27 -12 20 -11 57 3 82 l12 22 7
-25 c4 -14 7 -37 8 -52z m448 -640 c-2 -24 -4 -7 -4 37 0 44 2 63 4 43 2 -21
2 -57 0 -80z m886 60 c-2 -5 -10 -8 -18 -8 -8 0 -16 3 -18 8 -3 4 5 7 18 7 13
0 21 -3 18 -7z m124 -75 c-2 -16 -4 -3 -4 27 0 30 2 43 4 28 2 -16 2 -40 0
-55z m-290 -10 c-2 -16 -4 -5 -4 22 0 28 2 40 4 28 2 -13 2 -35 0 -50z m1010
-20 c-3 -10 -5 -4 -5 12 0 17 2 24 5 18 2 -7 2 -21 0 -30z m-784 -18 c-3 -8
-10 -15 -15 -15 -7 0 -6 5 1 13 6 8 7 18 3 22 -4 5 -2 5 5 1 7 -4 10 -13 6
-21z m-174 -84 c-7 -20 -15 -28 -25 -24 -8 3 -14 0 -14 -7 0 -6 -5 -8 -11 -4
-8 4 -3 11 12 20 13 7 22 16 21 20 -3 5 16 23 25 24 1 0 -3 -13 -8 -29z
m-1004 -142 c13 -20 11 -124 -3 -166 -16 -48 -30 -64 -27 -30 1 12 -2 33 -7
47 -12 31 -14 107 -4 138 8 23 30 30 41 11z m71 -26 c4 -21 7 -49 7 -63 1 -37
-11 -141 -16 -146 -17 -17 -35 179 -21 229 9 29 23 19 30 -20z m-156 -49 c0
-35 -3 -64 -7 -64 -25 1 -37 23 -39 74 -1 31 2 54 6 51 5 -3 11 -1 15 5 14 23
25 -5 25 -66z m1260 -29 c0 -5 -5 -3 -10 5 -5 8 -10 20 -10 25 0 6 5 3 10 -5
5 -8 10 -19 10 -25z m-170 1 c0 -3 -4 -8 -10 -11 -5 -3 -10 -1 -10 4 0 6 5 11
10 11 6 0 10 -2 10 -4z m510 -812 c7 -7 -115 -10 -419 -10 -236 1 -427 3 -424
6 20 20 823 24 843 4z m-721 -288 c-12 -10 -60 -16 -54 -6 3 5 18 10 32 10 15
0 24 -2 22 -4z m66 -36 c4 -6 -27 -9 -87 -8 l-93 2 85 6 c47 3 86 7 87 8 1 1
5 -2 8 -8z m545 -1 c-25 -4 -65 -7 -90 -7 l-45 1 40 7 c22 4 63 7 90 7 l50 0
-45 -8z m333 4 c-7 -2 -21 -2 -30 0 -10 3 -4 5 12 5 17 0 24 -2 18 -5z m669
-55 c-7 -7 -27 -6 -64 3 l-53 14 60 5 c59 5 77 -2 57 -22z m-2631 7 c1 -17
-18 -17 -25 0 -4 11 -1 15 10 13 8 -2 15 -7 15 -13z m1074 -114 c6 -1 4 -5 -3
-10 -15 -9 -64 -2 -57 9 2 3 14 6 27 4 13 -1 28 -3 33 -3z m235 -1 c0 -4 13
-6 30 -4 16 2 31 0 34 -4 2 -4 -18 -8 -45 -9 -32 0 -49 4 -49 12 0 6 7 12 15
12 8 0 15 -3 15 -7z m110 -5 c0 -8 -7 -15 -16 -15 -14 0 -14 3 -4 15 7 8 14
15 16 15 2 0 4 -7 4 -15z m1171 -185 c-8 -42 -9 -40 -10 36 -1 44 2 84 7 88
11 12 14 -73 3 -124z m-1571 95 c0 -16 -6 -25 -15 -25 -9 0 -15 9 -15 25 0 16
6 25 15 25 9 0 15 -9 15 -25z m370 7 c0 -24 -19 -42 -45 -42 -26 0 -45 18 -45
42 0 15 8 18 45 18 37 0 45 -3 45 -18z m1177 -19 c-3 -10 -5 -4 -5 12 0 17 2
24 5 18 2 -7 2 -21 0 -30z m-2518 -20 c0 -36 -3 -43 -9 -28 -12 28 -12 75 0
75 6 0 10 -21 9 -47z m18 0 c-3 -10 -5 -2 -5 17 0 19 2 27 5 18 2 -10 2 -26 0
-35z m323 32 c0 -8 -4 -15 -10 -15 -5 0 -10 7 -10 15 0 8 5 15 10 15 6 0 10
-7 10 -15z m2077 -177 c-3 -8 -6 -5 -6 6 -1 11 2 17 5 13 3 -3 4 -12 1 -19z
m-79 -121 c2 -42 -1 -77 -6 -77 -5 0 -9 24 -10 53 -1 28 -5 65 -8 81 -5 21 -3
27 7 24 10 -3 15 -28 17 -81z m-1267 -20 c1 -51 1 -154 -1 -231 -1 -98 1 -136
9 -132 6 4 11 0 11 -10 0 -14 -3 -15 -12 -6 -9 9 -92 12 -312 12 -164 0 -297
2 -294 5 2 3 118 5 258 5 213 1 257 3 284 17 29 15 30 15 16 -2 -13 -16 -12
-17 5 -14 16 3 21 14 23 52 2 37 0 47 -12 47 -9 0 -16 -5 -16 -11 0 -5 4 -8 8
-5 4 2 9 -7 10 -22 l2 -27 -13 25 c-17 35 -70 36 -75 2 -2 -13 2 -31 10 -40
12 -15 11 -16 -4 -3 -10 7 -18 22 -18 32 0 11 -5 19 -11 19 -5 0 -8 -3 -6 -7
3 -5 -7 -9 -21 -10 -23 -1 -24 0 -8 9 10 6 27 19 37 29 19 19 18 19 -7 19 -21
0 -25 -4 -20 -17 4 -10 4 -14 0 -11 -3 4 -15 -2 -27 -13 -11 -10 -27 -19 -34
-19 -8 0 -11 -4 -8 -10 3 -6 -1 -7 -10 -4 -9 4 -14 13 -11 20 7 18 -12 28 -28
15 -14 -12 -86 -11 -86 0 0 4 -18 2 -40 -3 -29 -8 -44 -7 -54 1 -11 9 -17 8
-29 -3 -11 -11 -17 -12 -26 -3 -9 9 -11 8 -5 -6 4 -12 2 -16 -8 -12 -9 4 -14
16 -13 30 3 21 1 23 -16 12 -13 -8 -15 -13 -6 -19 9 -6 9 -8 0 -9 -17 -2 -24
-4 -47 -14 -14 -6 -24 -3 -37 13 -9 12 -22 22 -28 22 -6 0 -11 7 -11 15 0 9
-6 12 -17 8 -12 -5 -14 -3 -8 7 5 9 4 11 -4 6 -9 -6 -9 -11 0 -22 10 -12 9
-13 -7 -7 -17 6 -17 5 -5 -10 7 -9 9 -17 3 -17 -5 0 -15 7 -22 15 -9 10 -9 15
-1 15 6 0 11 5 11 10 0 6 -9 10 -20 10 -11 0 -20 -4 -20 -10 0 -5 -9 -19 -20
-30 -26 -26 -25 -36 5 -56 24 -16 27 -16 48 2 15 14 18 14 9 2 -10 -13 -10
-17 0 -21 7 -3 -11 -6 -39 -6 l-53 -1 -2 38 c-1 34 -2 33 -8 -13 l-7 -50 -1
52 c-1 28 1 53 6 55 4 2 5 50 1 108 -3 70 -6 85 -7 46 -1 -33 -5 -56 -9 -52
-8 8 -16 222 -9 250 5 21 9 21 431 23 l425 1 1 -91z m38 -13 c-1 -52 -5 -94
-10 -94 -8 0 -18 188 -10 196 15 14 22 -21 20 -102z m363 74 l1 -33 4 33 4 32
408 0 409 0 5 -27 c3 -16 6 -115 7 -221 0 -106 3 -199 6 -207 4 -10 2 -13 -8
-10 -10 4 -12 23 -10 81 3 60 1 79 -12 93 -18 20 -54 18 -68 -3 -5 -7 -8 -7
-8 2 0 7 -5 10 -10 7 -6 -4 -7 -11 -4 -17 4 -6 2 -8 -4 -4 -6 3 -32 -15 -58
-41 -56 -57 -50 -47 41 71 l69 89 -39 34 c-24 21 -47 32 -57 29 -10 -2 -15 0
-12 5 3 5 -15 18 -40 28 -63 28 -116 41 -116 30 0 -5 7 -9 14 -9 12 0 13 -6 5
-30 -6 -16 -9 -35 -6 -42 2 -7 7 2 11 20 9 40 39 45 31 5 -5 -26 -5 -27 5 -5
11 27 34 19 27 -9 -3 -11 -1 -19 4 -19 5 0 9 7 9 15 0 8 7 15 15 15 23 0 18
-19 -13 -48 -16 -15 -33 -35 -39 -45 -9 -17 -14 -17 -54 -7 -102 28 -230 5
-296 -53 l-35 -31 -44 50 c-24 27 -44 54 -44 59 0 6 13 19 29 28 28 17 30 17
40 0 13 -23 14 -8 1 17 -7 13 -6 19 5 23 7 3 16 3 18 -1 2 -4 2 -1 1 6 -6 23
27 12 36 -13 5 -14 12 -25 14 -25 7 0 -4 31 -16 47 -10 13 -4 17 37 28 58 14
77 16 71 6 -3 -5 -1 -20 4 -33 l11 -23 -5 24 c-6 31 9 51 40 51 19 0 24 -5 24
-25 0 -14 5 -25 10 -25 6 0 9 3 9 8 -5 32 2 43 28 40 22 -2 29 -10 34 -33 6
-29 7 -29 8 8 l1 37 -83 0 c-47 0 -107 -7 -138 -16 -67 -20 -160 -68 -189 -99
l-21 -22 75 -100 76 -101 36 35 c20 18 52 40 71 48 49 21 149 19 198 -4 46
-21 94 -68 71 -68 -8 0 -13 3 -11 7 5 8 -61 33 -92 35 -17 1 -20 -1 -13 -10 6
-7 5 -16 -2 -23 -16 -16 -31 -15 -22 1 6 10 4 10 -7 0 -7 -7 -21 -13 -31 -13
-10 0 -18 -7 -18 -15 0 -17 -18 -19 -40 -5 -12 8 -12 10 -1 10 8 0 12 3 8 6
-3 3 -18 -1 -34 -9 -15 -9 -36 -18 -45 -21 -37 -11 -16 -25 45 -29 34 -2 -22
-4 -124 -5 l-186 -2 -7 31 c-3 17 -6 104 -6 192 0 88 -2 158 -5 155 -3 -3 -6
-54 -6 -114 -1 -83 -4 -101 -10 -74 -11 44 -9 260 3 260 4 0 9 -15 10 -32z
m1115 -15 c0 -36 -2 -41 -9 -24 -6 19 -2 71 6 71 2 0 3 -21 3 -47z m-2618
-220 c1 -101 -2 -163 -8 -163 -6 0 -10 51 -10 128 0 70 -2 153 -4 186 -4 52
-3 56 9 35 8 -16 13 -75 13 -186z m2166 100 c-5 -23 -4 -25 5 -10 6 9 18 17
27 17 14 0 14 -3 -1 -25 -9 -14 -12 -25 -7 -25 5 0 11 7 15 15 6 16 26 21 26
6 0 -11 -69 -101 -78 -101 -4 0 -20 10 -35 23 -27 22 -28 23 -13 62 8 22 15
33 16 25 0 -9 7 -4 16 13 8 15 19 27 25 27 5 0 7 -12 4 -27z m-668 -155 c-3
-8 -6 -5 -6 6 -1 11 2 17 5 13 3 -3 4 -12 1 -19z m812 -62 c-3 -3 -11 5 -18
17 -13 21 -12 21 5 5 10 -10 16 -20 13 -22z m-275 -11 c-4 -8 -8 -15 -10 -15
-2 0 -4 7 -4 15 0 8 4 15 10 15 5 0 7 -7 4 -15z m-535 -37 l-2 -43 -6 35 c-7
33 -5 50 5 50 2 0 3 -19 3 -42z m1115 -97 c0 -71 -2 -127 -6 -124 -5 2 -8 63
-8 135 0 72 3 128 6 125 4 -4 7 -65 8 -136z m-318 101 c-17 -16 -18 -16 -5 5
7 12 15 20 18 17 3 -2 -3 -12 -13 -22z m-1848 -29 c-10 -2 -26 -2 -35 0 -10 3
-2 5 17 5 19 0 27 -2 18 -5z m699 -35 c-3 -8 -6 -5 -6 6 -1 11 2 17 5 13 3 -3
4 -12 1 -19z m1225 -10 c-7 -7 -12 -8 -12 -2 0 14 12 26 19 19 2 -3 -1 -11 -7
-17z m-2977 -78 c3 -6 -1 -7 -9 -4 -18 7 -21 14 -7 14 6 0 13 -4 16 -10z m-21
-41 c-9 -10 -13 -19 -9 -19 5 0 6 -3 2 -6 -3 -4 -13 1 -22 10 -9 9 -12 16 -5
16 6 0 9 3 7 8 -3 4 6 8 20 8 23 2 24 1 7 -17z"/>
<path d="M1002 628 c-18 -18 -14 -46 9 -58 16 -9 25 -8 40 6 23 21 24 28 3 48
-19 19 -36 20 -52 4z m22 -23 c-6 -16 -24 -21 -24 -7 0 11 11 22 21 22 5 0 6
-7 3 -15z m22 -22 c-10 -10 -19 5 -10 18 6 11 8 11 12 0 2 -7 1 -15 -2 -18z"/>
<path d="M1689 618 c-10 -18 -8 -24 11 -40 24 -19 56 -11 67 18 15 40 -57 61
-78 22z m51 -8 c12 -7 12 -12 2 -22 -9 -9 -12 -8 -13 8 0 10 -3 13 -6 7 -2 -7
-9 -13 -14 -13 -4 0 -6 7 -3 15 7 17 13 18 34 5z"/>
<path d="M1278 603 c6 -2 18 -2 25 0 6 3 1 5 -13 5 -14 0 -19 -2 -12 -5z"/>
<path d="M1448 603 c6 -2 18 -2 25 0 6 3 1 5 -13 5 -14 0 -19 -2 -12 -5z"/>
<path d="M1370 557 c4 -41 5 -41 8 -8 2 18 0 37 -5 42 -5 5 -6 -11 -3 -34z"/>
<path d="M1508 593 c7 -3 16 -2 19 1 4 3 -2 6 -13 5 -11 0 -14 -3 -6 -6z"/>
<path d="M1332 570 c0 -14 2 -19 5 -12 2 6 2 18 0 25 -3 6 -5 1 -5 -13z"/>
<path d="M1451 583 c0 -6 -4 -20 -7 -30 -5 -14 -4 -15 5 -7 7 7 11 20 8 30 -3
11 -5 14 -6 7z"/>
<path d="M1292 560 c0 -14 2 -19 5 -12 2 6 2 18 0 25 -3 6 -5 1 -5 -13z"/>
<path d="M1412 560 c0 -14 2 -19 5 -12 2 6 2 18 0 25 -3 6 -5 1 -5 -13z"/>
<path d="M1480 554 c-6 -14 -10 -31 -9 -37 0 -7 5 2 11 18 6 17 16 33 22 37 8
5 7 8 -2 8 -7 0 -17 -12 -22 -26z"/>
<path d="M1518 555 c-3 -14 -1 -25 3 -25 5 0 9 7 9 15 0 8 5 15 10 15 6 0 10
5 10 10 0 21 -28 9 -32 -15z"/>
<path d="M1580 565 c25 -14 26 -16 9 -48 -14 -25 -30 -11 -23 21 4 23 4 24 -6
9 -7 -10 -9 -25 -6 -34 3 -8 -3 -28 -15 -44 -11 -16 -18 -33 -14 -39 3 -5 -11
-2 -32 7 -62 27 -178 21 -249 -11 -32 -15 -69 -37 -82 -49 l-24 -22 -49 54
c-27 30 -49 58 -49 62 0 4 18 20 40 36 69 48 77 55 44 39 -37 -18 -94 -64 -94
-76 0 -5 32 -51 72 -104 l72 -95 46 43 c93 87 244 84 329 -7 l23 -26 60 77
c97 127 93 119 72 143 -10 11 -24 17 -31 15 -7 -3 -15 0 -19 6 -5 7 -2 8 7 4
8 -4 6 -1 -4 8 -11 8 -26 12 -35 9 -9 -4 -13 -2 -9 4 4 5 -5 15 -19 22 -35 15
-44 13 -14 -4z m44 -59 c-9 -15 -14 -30 -10 -33 4 -4 9 3 13 15 3 13 11 21 17
19 11 -5 12 -8 1 -42 -5 -17 -4 -16 6 2 21 40 67 36 52 -4 -4 -11 -8 -12 -13
-3 -5 9 -9 9 -14 1 -4 -6 -4 -16 0 -23 4 -6 3 -8 -4 -4 -6 3 -23 -9 -38 -28
l-28 -35 -30 21 c-17 12 -33 23 -34 24 -8 5 22 73 30 68 4 -3 13 7 20 21 7 15
17 24 25 21 7 -3 13 0 13 6 0 6 3 9 6 6 3 -4 -2 -18 -12 -32z m-99 -106 c-3
-5 -12 -10 -18 -10 -7 0 -6 4 3 10 19 12 23 12 15 0z"/>
<path d="M1180 530 c6 -11 13 -20 16 -20 2 0 0 9 -6 20 -6 11 -13 20 -16 20
-2 0 0 -9 6 -20z"/>
<path d="M1261 524 c0 -11 3 -14 6 -6 3 7 2 16 -1 19 -3 4 -6 -2 -5 -13z"/>
<path d="M1096 467 c3 -10 9 -15 12 -12 3 3 0 11 -7 18 -10 9 -11 8 -5 -6z"/>
<path d="M980 314 c0 -22 2 -25 15 -14 8 7 15 19 15 26 0 8 -7 14 -15 14 -10
0 -15 -10 -15 -26z"/>
<path d="M980 230 c0 -5 5 -10 11 -10 5 0 7 5 4 10 -3 6 -8 10 -11 10 -2 0 -4
-4 -4 -10z"/>
<path d="M2230 635 c-20 -24 -3 -55 30 -55 20 0 31 6 35 20 8 25 -10 50 -35
50 -10 0 -23 -7 -30 -15z m23 -20 c-3 -9 -8 -14 -10 -11 -3 3 -2 9 2 15 9 16
15 13 8 -4z m23 -22 c-10 -10 -19 5 -10 18 6 11 8 11 12 0 2 -7 1 -15 -2 -18z"/>
<path d="M2936 637 c-36 -26 4 -84 42 -61 23 15 26 38 7 58 -20 19 -26 20 -49
3z"/>
<path d="M2488 585 c-7 -8 3 -54 13 -61 5 -3 6 10 2 28 -7 38 -8 40 -15 33z"/>
<path d="M2572 570 c0 -14 2 -19 5 -12 2 6 2 18 0 25 -3 6 -5 1 -5 -13z"/>
<path d="M2641 564 c0 -11 3 -14 6 -6 3 7 2 16 -1 19 -3 4 -6 -2 -5 -13z"/>
<path d="M2450 556 c0 -8 4 -17 9 -20 5 -4 7 3 4 14 -6 23 -13 26 -13 6z"/>
<path d="M2330 482 c6 -13 14 -21 18 -18 3 4 -2 14 -12 24 -18 16 -18 16 -6
-6z"/>
<path d="M2230 305 c-7 -8 -9 -26 -6 -42 6 -28 7 -28 96 -31 54 -2 90 1 90 7
0 5 -6 12 -12 14 -10 4 -10 6 0 6 7 1 15 -6 18 -14 4 -8 14 -15 23 -15 12 0
10 5 -9 19 -28 22 -63 24 -55 3 5 -14 -3 -14 -50 3 -16 5 -17 5 -5 -4 12 -8
11 -10 -6 -9 -16 2 -19 7 -16 25 8 44 -40 71 -68 38z"/>
<path d="M3250 3431 c-91 -48 -108 -161 -37 -238 11 -13 28 -23 38 -23 9 0 19
-8 21 -17 2 -10 0 -134 -5 -277 -4 -142 -5 -266 -1 -275 4 -9 9 -35 10 -59 2
-23 8 -50 13 -60 9 -14 11 -12 11 13 1 17 3 163 6 325 3 162 6 307 7 322 2 28
27 65 27 39 0 -11 3 -11 15 -1 12 10 13 16 3 27 -6 8 -14 35 -16 60 -3 38 -1
45 17 50 13 3 20 12 19 22 -2 9 2 15 9 14 7 -2 17 6 22 16 18 33 -43 81 -102
81 -12 0 -38 -8 -57 -19z"/>
<path d="M3375 3230 c-3 -5 1 -10 10 -10 9 0 13 5 10 10 -3 6 -8 10 -10 10 -2
0 -7 -4 -10 -10z"/>
<path d="M692 2823 c-1 -111 1 -204 6 -206 4 -3 6 65 4 151 -4 251 -8 273 -10
55z"/>
<path d="M3007 2746 c-3 -8 -6 -195 -6 -415 0 -391 1 -401 19 -391 30 16 41
46 45 123 3 48 0 74 -8 79 -9 6 -9 8 1 8 6 0 12 5 12 11 0 5 -4 8 -9 4 -6 -3
-9 4 -8 15 1 11 4 20 7 20 13 0 3 42 -11 50 -20 13 -18 146 4 191 11 24 17 68
19 144 2 94 0 115 -17 143 -21 34 -39 41 -48 18z"/>
<path d="M3114 2655 c-9 -23 1 -244 12 -255 5 -5 15 -6 21 -2 18 11 21 236 3
257 -16 19 -29 19 -36 0z"/>
<path d="M1716 2613 c-6 -14 -5 -15 5 -6 7 7 10 15 7 18 -3 3 -9 -2 -12 -12z"/>
<path d="M3212 2498 c2 -75 6 -93 18 -93 12 0 15 17 15 90 0 78 -2 90 -18 93
-16 3 -18 -5 -15 -90z"/>
<path d="M2982 2555 c0 -16 2 -22 5 -12 2 9 2 23 0 30 -3 6 -5 -1 -5 -18z"/>
<path d="M1665 2540 c-16 -17 -53 -42 -83 -57 -85 -41 -178 -27 -282 44 -25
17 -25 17 -7 -3 9 -12 40 -33 68 -48 94 -52 233 -29 309 50 19 18 31 36 29 39
-3 3 -18 -9 -34 -25z"/>
<path d="M2677 2539 c-38 -40 -98 -69 -155 -76 -42 -5 -66 -1 -137 21 -11 4
-2 -3 20 -14 93 -46 245 -7 300 77 21 32 6 28 -28 -8z"/>
<path d="M2101 2482 c0 -13 -5 -20 -11 -17 -5 3 -10 -2 -10 -12 0 -16 1 -16
16 -1 9 8 14 24 11 34 -4 15 -5 15 -6 -4z"/>
<path d="M2970 2465 c0 -8 2 -15 4 -15 2 0 6 7 10 15 3 8 1 15 -4 15 -6 0 -10
-7 -10 -15z"/>
<path d="M1825 2450 c-3 -5 -1 -10 4 -10 6 0 11 5 11 10 0 6 -2 10 -4 10 -3 0
-8 -4 -11 -10z"/>
<path d="M2111 2434 c0 -11 3 -14 6 -6 3 7 2 16 -1 19 -3 4 -6 -2 -5 -13z"/>
<path d="M2685 2430 c-3 -5 -1 -10 4 -10 6 0 11 5 11 10 0 6 -2 10 -4 10 -3 0
-8 -4 -11 -10z"/>
<path d="M675 2410 c-4 -12 0 -26 10 -37 13 -12 15 -26 10 -60 -4 -28 -2 -43
4 -43 7 0 11 30 11 80 0 63 -3 80 -14 80 -8 0 -18 -9 -21 -20z"/>
<path d="M3289 2430 c-1 -3 -2 -29 -3 -57 -2 -42 0 -50 10 -42 10 8 15 5 20
-15 3 -14 4 -33 0 -41 -3 -8 0 -15 6 -15 7 0 9 16 6 45 -3 25 -2 48 3 51 5 3
9 19 9 36 0 24 -3 29 -17 24 -9 -4 -20 -1 -25 6 -4 7 -8 11 -9 8z"/>
<path d="M1767 2412 c-3 -4 3 -17 13 -30 14 -17 21 -19 26 -10 12 19 14 38 3
38 -5 0 -9 -5 -9 -11 0 -6 -6 -9 -12 -6 -7 2 -12 10 -10 16 2 13 -4 15 -11 3z"/>
<path d="M2388 2393 c7 -3 16 -2 19 1 4 3 -2 6 -13 5 -11 0 -14 -3 -6 -6z"/>
<path d="M2978 2388 c0 -7 -2 -17 -2 -23 -1 -5 -5 -16 -9 -22 -5 -8 -3 -13 4
-13 7 0 8 -5 3 -12 -5 -7 -8 -33 -8 -58 1 -25 2 -74 3 -109 1 -35 4 -61 8 -57
8 8 15 306 8 306 -3 0 -6 -6 -7 -12z"/>
<path d="M2778 2383 c-10 -2 -18 -9 -18 -14 0 -6 8 -5 20 1 11 6 20 13 20 15
0 3 -1 4 -2 4 -2 -1 -11 -3 -20 -6z"/>
<path d="M2820 2350 c8 -5 20 -10 25 -10 6 0 3 5 -5 10 -8 5 -19 10 -25 10 -5
0 -3 -5 5 -10z"/>
<path d="M2770 2331 c0 -7 -5 -9 -10 -6 -6 4 -17 1 -25 -5 -11 -9 -15 -9 -15
-1 0 18 -14 13 -28 -10 -10 -15 -10 -19 -1 -14 7 5 17 1 24 -9 11 -15 13 -14
19 9 4 14 11 25 17 25 6 0 6 -6 -1 -19 -8 -16 -7 -19 8 -16 9 2 23 4 30 4 6 1
12 6 12 12 0 6 -9 8 -22 3 -20 -6 -21 -5 -9 10 8 9 11 19 7 23 -3 3 -6 1 -6
-6z"/>
<path d="M1650 2304 c0 -6 7 -19 16 -30 14 -18 14 -18 3 6 -14 31 -19 36 -19
24z"/>
<path d="M2205 2275 c0 -13 3 -21 8 -18 4 2 7 10 7 18 0 8 -3 16 -7 18 -5 3
-8 -5 -8 -18z"/>
<path d="M2807 2286 c-4 -10 -1 -13 8 -9 8 3 12 9 9 14 -7 12 -11 11 -17 -5z"/>
<path d="M3120 2286 c0 -10 -4 -15 -9 -12 -11 7 -18 -61 -17 -169 1 -72 3 -80
20 -80 13 0 22 12 31 41 12 43 20 232 8 221 -3 -4 -12 -2 -20 4 -10 9 -13 8
-13 -5z"/>
<path d="M3228 2284 c-20 -11 -28 -24 -33 -57 -10 -64 -3 -110 17 -113 16 -2
24 11 47 85 14 43 14 44 -1 35 -10 -6 -10 -4 0 7 13 14 16 45 4 52 -4 3 -19
-1 -34 -9z"/>
<path d="M1727 2275 c-4 -8 -3 -16 1 -19 4 -3 9 4 9 15 2 23 -3 25 -10 4z"/>
<path d="M1618 2253 c7 -3 16 -2 19 1 4 3 -2 6 -13 5 -11 0 -14 -3 -6 -6z"/>
<path d="M2603 2245 c0 -8 4 -12 9 -9 5 3 6 10 3 15 -9 13 -12 11 -12 -6z"/>
<path d="M2656 2248 c3 -5 10 -6 15 -3 13 9 11 12 -6 12 -8 0 -12 -4 -9 -9z"/>
<path d="M2693 2239 c-2 -19 11 -26 21 -10 3 5 0 14 -7 19 -10 8 -13 6 -14 -9z"/>
<path d="M2776 2239 c16 -18 19 -19 22 -5 2 9 8 16 14 16 6 0 8 3 5 6 -4 4
-13 1 -22 -6 -10 -8 -15 -9 -15 -1 0 6 -5 11 -12 11 -6 0 -3 -9 8 -21z"/>
<path d="M1265 2230 c-3 -5 1 -10 10 -10 9 0 13 5 10 10 -3 6 -8 10 -10 10 -2
0 -7 -4 -10 -10z"/>
<path d="M1743 2226 c0 -7 9 -13 19 -13 10 -1 18 2 18 6 0 5 -8 11 -18 13 -10
3 -19 0 -19 -6z"/>
<path d="M2202 2214 c-1 -15 4 -24 12 -24 9 0 12 7 9 20 -8 30 -18 32 -21 4z"/>
<path d="M2826 2222 c-3 -5 1 -9 9 -9 8 0 12 4 9 9 -3 4 -7 8 -9 8 -2 0 -6 -4
-9 -8z"/>
<path d="M1616 2203 c-6 -14 -5 -15 5 -6 7 7 10 15 7 18 -3 3 -9 -2 -12 -12z"/>
<path d="M1913 2208 c-52 -9 -59 -16 -54 -54 1 -12 -130 -11 -149 1 -6 3 -10
1 -10 -5 0 -6 -12 -8 -31 -5 -52 9 -150 5 -160 -7 -3 -4 -41 -10 -85 -13 -43
-3 -85 -6 -92 -7 -22 -2 -45 -46 -40 -73 3 -14 1 -25 -3 -25 -5 0 -4 -11 1
-25 5 -14 8 -39 6 -55 -2 -16 0 -27 4 -25 15 9 19 -24 5 -35 -8 -7 -12 -17 -8
-24 4 -6 9 -33 11 -60 4 -66 27 -83 117 -91 83 -7 1133 -2 1155 6 8 3 32 9 53
14 40 8 46 13 52 47 3 13 9 24 15 26 5 2 10 10 10 18 0 8 -7 11 -17 8 -16 -5
-16 -4 -3 8 11 9 15 35 15 96 0 55 4 81 11 78 6 -2 11 2 11 10 0 8 -4 14 -9
14 -4 0 -8 5 -8 11 0 5 6 7 13 4 6 -4 3 1 -7 9 -11 9 -16 16 -11 16 4 0 1 8
-7 18 -8 9 -18 25 -21 35 -6 14 -11 16 -27 7 -11 -6 -20 -7 -20 -3 0 4 -57 9
-128 11 -205 4 -205 4 -220 32 l-13 25 4 -26 c3 -19 -1 -25 -16 -26 -13 -1
-16 1 -8 10 7 9 5 13 -9 13 -10 0 -17 -3 -14 -7 5 -9 -96 -28 -113 -22 -7 3
-13 18 -13 33 0 25 -4 28 -57 39 -63 12 -58 12 -130 -1z m657 -134 c6 -6 12
-18 13 -25 2 -8 6 -19 9 -25 4 -6 6 -21 3 -32 -7 -41 -8 -169 0 -182 4 -7 4
-15 -1 -19 -5 -3 -10 -17 -12 -31 -1 -13 -7 -29 -13 -35 -11 -11 -948 -17
-1089 -6 l-85 6 -3 40 c-2 22 -9 43 -15 47 -8 5 -9 8 -1 8 15 0 16 162 0 172
-8 6 -7 8 2 8 7 0 12 13 12 29 0 27 24 60 36 48 3 -3 17 -1 32 3 44 13 1099 7
1112 -6z"/>
<path d="M1412 1878 c6 -18 1119 -22 1143 -4 13 9 -110 12 -565 14 -465 2
-581 0 -578 -10z"/>
<path d="M1559 2208 c-6 -21 -5 -38 1 -38 5 0 8 9 7 20 -1 17 -5 26 -8 18z"/>
<path d="M2966 2054 c-6 -21 -1 -83 8 -92 3 -3 6 8 7 24 0 16 2 36 4 45 5 26
-12 46 -19 23z"/>
<path d="M2968 1908 c-3 -24 -1 -50 3 -58 5 -9 9 7 9 43 0 67 -6 75 -12 15z"/>
<path d="M723 1203 c-34 -13 -4 -23 72 -23 79 0 107 10 69 24 -18 7 -123 7
-141 -1z"/>
<path d="M3138 1193 c6 -2 18 -2 25 0 6 3 1 5 -13 5 -14 0 -19 -2 -12 -5z"/>
<path d="M440 1170 c-19 -6 -12 -8 30 -8 39 -1 49 2 35 8 -24 10 -33 10 -65 0z"/>
<path d="M1148 1173 c7 -3 16 -2 19 1 4 3 -2 6 -13 5 -11 0 -14 -3 -6 -6z"/>
<path d="M3570 1176 c0 -2 7 -7 16 -10 8 -3 12 -2 9 4 -6 10 -25 14 -25 6z"/>
<path d="M3968 1060 c-16 -27 -22 -30 -70 -30 -50 0 -94 -8 -144 -24 -16 -5
-23 -2 -26 12 -6 22 -80 42 -86 23 -2 -6 -9 -8 -15 -4 -7 4 -8 0 -3 -13 13
-32 5 -732 -10 -879 -3 -33 -6 -62 -6 -65 0 -3 0 -22 1 -42 l1 -38 139 0 139
0 1 102 c1 61 6 105 13 109 16 10 71 -8 86 -28 11 -15 13 9 11 142 -1 135 -3
161 -17 172 -16 11 -16 14 1 43 15 28 17 63 17 291 0 142 -3 259 -7 259 -5 0
-16 -14 -25 -30z m-201 -509 c-1 -115 -5 -213 -9 -217 -4 -4 -13 -2 -20 3 -7
6 -25 13 -40 17 -26 6 -28 4 -28 -24 0 -17 -4 -29 -9 -26 -10 7 -20 234 -14
318 5 56 8 65 31 76 21 10 27 9 38 -6 11 -16 13 -15 23 11 6 15 10 35 9 45 -1
9 0 37 2 62 l2 45 8 -47 c5 -26 7 -141 7 -257z"/>
<path d="M3685 650 c-3 -5 -1 -10 4 -10 6 0 11 5 11 10 0 6 -2 10 -4 10 -3 0
-8 -4 -11 -10z"/>
</g>
</svg>
